<svg width="241" height="35" viewBox="0 0 241 35" fill="none" xmlns="http://www.w3.org/2000/svg">
<path d="M12.8817 7.04498C20.8371 7.04498 26.0344 11.8405 26.0344 20.1452V21.8707H4.65526C4.82 27.1003 7.57808 31.0859 13.1527 31.0859C17.7548 31.0859 20.4598 28.7146 21.3791 24.9936H26.1407C25.0566 29.9532 21.4854 34.9128 13.2058 34.9128C4.43738 34.9128 0 28.5505 0 20.6269C0 11.9463 5.19731 7.04498 12.8817 7.04498ZM21.326 18.4726C21.0018 13.6189 17.7017 10.8189 12.8817 10.8189C8.4443 10.8189 5.09102 13.6242 4.7084 18.4726H21.3207H21.326Z" fill="white"/>
<path d="M29.7119 30.2761H37.2369V4.14447H31.6091V0.0476685H39.2403C41.0259 0.0476685 42.0569 0.963362 42.0569 2.74182V30.2761H49.5818V34.3729H29.7225V30.2761H29.7119Z" fill="white"/>
<path d="M65.535 7.04498C73.4904 7.04498 78.6877 11.8405 78.6877 20.1452V21.8707H57.3086C57.4733 27.1003 60.2314 31.0859 65.806 31.0859C70.4081 31.0859 73.1131 28.7146 74.0324 24.9936H78.794C77.7099 29.9532 74.1387 34.9128 65.8592 34.9128C57.0907 34.9128 52.6533 28.5505 52.6533 20.6269C52.6533 11.9463 57.8506 7.04498 65.535 7.04498ZM73.9793 18.4726C73.6551 13.6189 70.355 10.8189 65.535 10.8189C61.0976 10.8189 57.7443 13.6242 57.3617 18.4726H73.974H73.9793Z" fill="white"/>
<path d="M109.154 7.58487L100.604 34.3729H90.5915L81.8762 7.58487H86.6909L94.9173 33.0284H96.2724L104.393 7.58487H109.154Z" fill="white"/>
<path d="M142.639 19.1184L153.193 18.0915C152.975 13.2378 150.759 10.9248 145.998 10.9248C142.262 10.9248 139.451 12.6503 139.015 17.1229H134.253C134.848 11.0306 138.962 7.04498 145.944 7.04498C153.794 7.04498 158.013 11.8405 158.013 18.9014V30.2761H161.866V34.3729H157.041C154.984 34.3729 153.794 33.1872 153.794 31.1388V29.8473L154.554 26.9891H153.198C152.173 31.0859 149.303 34.9128 142.756 34.9128C134.854 34.9128 133.663 29.7362 133.663 26.9362C133.663 22.6806 136.262 19.7112 142.644 19.1184H142.639ZM143.505 30.9748C149.351 30.9748 153.193 26.878 153.193 21.4896L143.452 22.5112C140.152 22.8341 138.42 23.7498 138.42 26.3381C138.42 29.408 140.423 30.9748 143.505 30.9748Z" fill="white"/>
<path d="M211.129 34.3729H200.575C198.029 34.3729 196.786 33.1873 196.786 30.599V11.6817H190.834V7.58491H196.786V0H201.6V7.58491H210.045V11.6817H201.6V30.3343L211.123 30.2814V34.3782L211.129 34.3729Z" fill="white"/>
<path d="M227.741 7.04498C235.696 7.04498 240.894 11.8405 240.894 20.1452V21.8707H219.515C219.679 27.1003 222.437 31.0859 228.012 31.0859C232.614 31.0859 235.319 28.7146 236.238 24.9936H241C239.916 29.9532 236.345 34.9128 228.065 34.9128C219.297 34.9128 214.859 28.5505 214.859 20.6269C214.859 11.9463 220.057 7.04498 227.741 7.04498ZM236.185 18.4726C235.861 13.6189 232.561 10.8189 227.741 10.8189C223.304 10.8189 219.95 13.6242 219.568 18.4726H236.18H236.185Z" fill="white"/>
<path d="M185.658 7.53198C183.171 7.53198 181.119 8.15127 179.514 9.38983C177.909 10.6284 176.65 12.2851 176.076 14.4764H174.891L175.683 11.4382V10.2896C175.683 8.51119 174.652 7.5955 172.866 7.5955H165.235V11.6923H170.863V30.2761H164.932V34.3729H183.197V30.2761H175.672V19.6371V19.6477C175.672 17.3188 176.724 15.4345 178.26 14.0001C179.791 12.5657 181.805 11.8511 184.292 11.8511H186.354V7.53728H185.647L185.658 7.53198Z" fill="white"/>
<path d="M116.318 22.2096C113.421 21.6803 110.557 21.1563 107.629 20.6164C107.783 19.8436 108.022 19.1132 108.043 18.3721C108.059 17.7529 108.075 17.1442 108.272 16.5566C108.484 15.9321 108.761 15.7309 109.425 15.8738C111.227 16.2496 113.023 16.6731 114.819 17.0807C115.712 17.2818 116.599 17.5041 117.598 17.7423C117.317 16.0538 116.993 14.45 116.791 12.8356C116.658 11.7559 116.668 10.6549 116.695 9.56455C116.706 9.23109 116.993 8.90822 117.163 8.55359C117.327 9.14111 117.497 9.73393 117.71 10.4802C117.758 10.2209 117.795 10.1097 117.795 9.99329C117.795 9.5328 117.721 9.04054 118.38 8.91351C118.47 8.89763 118.518 8.68591 118.603 8.53241C118.778 8.6224 118.959 8.71767 119.14 8.80765C119.793 8.10368 120.627 8.30481 120.968 9.20463C121.409 10.3585 121.451 11.5706 121.504 12.7774C121.573 14.3389 121.621 15.9056 121.68 17.5994C125.044 15.7256 128.408 14.2753 131.904 13.1321C132.298 13.8201 131.617 13.9578 131.346 14.2648C131.097 14.5506 130.735 14.7305 130.432 14.974C130.145 15.2069 129.874 15.4557 129.656 15.7997C130.044 15.5668 130.443 15.3392 130.825 15.0958C131.192 14.8576 131.548 14.5929 132.021 14.4236C131.941 14.6247 131.856 14.8205 131.745 15.1064C131.952 14.9634 132.096 14.8629 132.244 14.7623C132.542 15.1222 131.681 15.4557 132.271 15.8633C130.698 16.9377 129.114 18.0228 127.44 19.1661C127.764 19.1714 128.004 19.1767 128.248 19.182C128.259 19.2243 128.264 19.2614 128.275 19.3037C126.696 20.0183 125.123 20.7328 123.524 21.458C125.23 23.1623 126.861 24.7979 128.493 26.4281C128.466 26.4705 128.439 26.5075 128.413 26.5499C128.184 26.4175 127.961 26.2799 127.637 26.0947C128.716 27.2803 129.731 28.3866 130.74 29.4981C130.693 29.551 130.645 29.5987 130.597 29.6516C130.358 29.4769 130.119 29.3022 129.81 29.0799C130.034 29.6251 130.225 30.1068 130.443 30.6414C130.267 30.5937 130.145 30.5567 129.975 30.5091C130.023 30.7367 130.06 30.9378 130.108 31.1866C129.938 31.0437 129.8 30.9272 129.64 30.7896C129.63 30.8796 129.619 30.9537 129.609 31.0648C129.173 30.7843 128.822 30.0803 128.19 30.7261C128.461 31.1336 128.716 31.5147 128.971 31.9011C128.934 31.9646 128.896 32.0282 128.854 32.0917C128.259 31.8217 127.541 31.6841 127.095 31.2607C125.272 29.5404 123.534 27.7302 121.759 25.9571C121.334 25.5336 120.904 25.1155 120.431 24.6497C118.762 27.3862 117.12 30.075 115.436 32.8486C115.462 32.404 115.489 32.0705 115.51 31.7106C115.382 31.7423 115.297 31.7582 115.191 31.7847C115.01 30.6943 115.807 29.9639 116.179 29.0799C116.126 29.0482 116.073 29.0164 116.025 28.99C115.467 29.8263 114.909 30.6626 114.357 31.5041C114.335 31.4989 114.314 31.4936 114.298 31.4883C114.612 30.8743 114.925 30.2603 115.239 29.6463C115.18 29.6145 115.117 29.5881 115.058 29.5563C114.745 30.0856 114.426 30.6202 114.112 31.1495C114.091 31.1495 114.064 31.1389 114.043 31.1389C114.107 30.8372 114.171 30.5408 114.245 30.2021C114.139 30.2868 114.059 30.3503 113.985 30.4138C113.942 30.3926 113.9 30.3714 113.857 30.3503L115.388 26.8939L115.34 26.841C114.378 28.3072 113.416 29.7733 112.454 31.2448L112.258 31.1336C112.502 30.5726 112.762 30.0168 112.97 29.4452C113.033 29.2758 112.901 29.0482 112.943 28.8629C113.012 28.5453 113.129 28.2384 113.262 27.9419C113.368 27.6985 113.533 27.4814 113.65 27.2433C113.852 26.8463 114.022 26.4281 114.234 26.0365C114.909 24.7926 115.6 23.554 116.328 22.2361L116.318 22.2096ZM130.953 16.4561C130.911 16.3926 130.863 16.329 130.82 16.2655C130.119 16.7525 129.423 17.2394 128.721 17.7264C128.764 17.7899 128.806 17.8481 128.849 17.9117C129.55 17.4247 130.252 16.943 130.948 16.4561H130.953Z" fill="#FA942E"/>
<path d="M129.348 28.937C129.752 29.6145 130.161 30.2973 130.565 30.9748C130.512 31.0065 130.459 31.0383 130.406 31.07C130.034 30.3608 129.279 29.895 129.072 29.0852C129.162 29.0375 129.252 28.9846 129.348 28.937Z" fill="#FA942E"/>
</svg>
