<svg width="154" height="22" viewBox="0 0 154 22" fill="none" xmlns="http://www.w3.org/2000/svg">
<path d="M8.23144 4.43933C13.315 4.43933 16.6361 7.46116 16.6361 12.6943V13.7817H2.97473C3.08 17.077 4.84243 19.5885 8.40463 19.5885C11.3454 19.5885 13.0739 18.0943 13.6613 15.7495H16.704C16.0112 18.8747 13.7293 22 8.43859 22C2.8355 22 0 17.9909 0 12.9979C0 7.52787 3.3211 4.43933 8.23144 4.43933ZM13.6274 11.6404C13.4202 8.58184 11.3114 6.81744 8.23144 6.81744C5.39594 6.81744 3.25319 8.58518 3.00869 11.6404H13.624H13.6274Z" fill="#FFF9F5"/>
<path d="M18.986 19.0782H23.7944V2.61159H20.1983V0.0300293H25.0746C26.2156 0.0300293 26.8744 0.607046 26.8744 1.72772V19.0782H31.6829V21.6598H18.9928V19.0782H18.986Z" fill="#FFF9F5"/>
<path d="M41.8772 4.43933C46.9607 4.43933 50.2818 7.46116 50.2818 12.6943V13.7817H36.6205C36.7258 17.077 38.4882 19.5885 42.0504 19.5885C44.9912 19.5885 46.7196 18.0943 47.3071 15.7495H50.3497C49.657 18.8747 47.375 22 42.0843 22C36.4813 22 33.6458 17.9909 33.6458 12.9979C33.6458 7.52787 36.9669 4.43933 41.8772 4.43933ZM47.2731 11.6404C47.066 8.58184 44.9572 6.81744 41.8772 6.81744C39.0417 6.81744 36.8989 8.58518 36.6544 11.6404H47.2697H47.2731Z" fill="#FFF9F5"/>
<path d="M69.7499 4.77954L64.286 21.6598H57.8883L52.3192 4.77954H55.3958L60.6525 20.8126H61.5185L66.7073 4.77954H69.7499Z" fill="#FFF9F5"/>
<path d="M91.1469 12.0473L97.891 11.4002C97.7517 8.3417 96.3357 6.88415 93.2931 6.88415C90.9058 6.88415 89.1094 7.97147 88.831 10.7898H85.7883C86.1686 6.95085 88.797 4.43933 93.2591 4.43933C98.2747 4.43933 100.971 7.46116 100.971 11.9105V19.0782H103.433V21.6598H100.35C99.0354 21.6598 98.2747 20.9126 98.2747 19.6219V18.808L98.7603 17.0069H97.8944C97.239 19.5885 95.4052 22 91.2216 22C86.172 22 85.4114 18.738 85.4114 16.9736C85.4114 14.292 87.0719 12.4208 91.1503 12.0473H91.1469ZM91.7004 19.5185C95.4358 19.5185 97.891 16.9369 97.891 13.5415L91.6665 14.1852C89.5577 14.3887 88.4506 14.9657 88.4506 16.5967C88.4506 18.5312 89.7308 19.5185 91.7004 19.5185Z" fill="#FFF9F5"/>
<path d="M134.912 21.6598H128.168C126.542 21.6598 125.747 20.9127 125.747 19.2817V7.36113H121.944V4.77956H125.747V0H128.824V4.77956H134.219V7.36113H128.824V19.1149L134.909 19.0816V21.6631L134.912 21.6598Z" fill="#FFF9F5"/>
<path d="M145.527 4.43933C150.611 4.43933 153.932 7.46116 153.932 12.6943V13.7817H140.271C140.376 17.077 142.138 19.5885 145.701 19.5885C148.641 19.5885 150.37 18.0943 150.957 15.7495H154C153.307 18.8747 151.025 22 145.735 22C140.132 22 137.296 17.9909 137.296 12.9979C137.296 7.52787 140.617 4.43933 145.527 4.43933ZM150.923 11.6404C150.716 8.58184 148.607 6.81744 145.527 6.81744C142.692 6.81744 140.549 8.58518 140.305 11.6404H150.92H150.923Z" fill="#FFF9F5"/>
<path d="M118.636 4.74622C117.047 4.74622 115.736 5.13645 114.71 5.91693C113.685 6.6974 112.88 7.74136 112.513 9.1222H111.756L112.262 7.20771V6.48394C112.262 5.36326 111.603 4.78624 110.462 4.78624H105.586V7.36781H109.182V19.0782H105.392V21.6598H117.064V19.0782H112.255V12.3742V12.3808C112.255 10.9133 112.928 9.7259 113.909 8.82202C114.887 7.91814 116.174 7.46787 117.763 7.46787H119.081V4.74955H118.629L118.636 4.74622Z" fill="#FFF9F5"/>
<path d="M74.3275 13.9952C72.4768 13.6616 70.6465 13.3314 68.7754 12.9912C68.8739 12.5043 69.0267 12.044 69.0403 11.577C69.0505 11.1868 69.0606 10.8032 69.1863 10.433C69.3221 10.0394 69.4987 9.9127 69.9232 10.0028C71.0744 10.2396 72.2221 10.5064 73.3699 10.7632C73.9404 10.89 74.5075 11.03 75.1459 11.1801C74.966 10.1162 74.7588 9.10555 74.6298 8.08826C74.5449 7.40785 74.5517 6.7141 74.5686 6.02701C74.5754 5.81689 74.7588 5.61343 74.8675 5.38996C74.9727 5.76019 75.0814 6.13375 75.2172 6.60403C75.2478 6.4406 75.2716 6.37056 75.2716 6.29718C75.2716 6.007 75.224 5.69681 75.6451 5.61677C75.7028 5.60676 75.7334 5.47335 75.7877 5.37662C75.8998 5.43332 76.0153 5.49336 76.1307 5.55006C76.5484 5.10646 77.0815 5.2332 77.2989 5.80021C77.5807 6.52732 77.6079 7.29111 77.6419 8.05157C77.686 9.0355 77.7166 10.0228 77.7539 11.0901C79.9035 9.90937 82.053 8.99548 84.2875 8.27504C84.5387 8.70864 84.1041 8.79536 83.9309 8.98881C83.7713 9.16892 83.5404 9.28232 83.3468 9.43575C83.1634 9.5825 82.9903 9.73926 82.851 9.95606C83.0989 9.80931 83.3536 9.66589 83.5981 9.51246C83.8324 9.36237 84.0599 9.1956 84.3622 9.08887C84.3112 9.21561 84.2569 9.33902 84.1856 9.51913C84.318 9.42908 84.4097 9.3657 84.5048 9.30233C84.695 9.52914 84.1448 9.73926 84.5218 9.99609C83.5166 10.6732 82.5047 11.3569 81.435 12.0773C81.6421 12.0807 81.7949 12.084 81.9511 12.0874C81.9579 12.114 81.9613 12.1374 81.9681 12.1641C80.9596 12.6143 79.9544 13.0646 78.9323 13.5216C80.0223 14.5955 81.0648 15.6262 82.1073 16.6535C82.0904 16.6801 82.0734 16.7035 82.0564 16.7302C81.9104 16.6468 81.7678 16.5601 81.5606 16.4433C82.25 17.1904 82.8986 17.8875 83.5438 18.588C83.5132 18.6213 83.4826 18.6513 83.4521 18.6847C83.2993 18.5746 83.1465 18.4646 82.9495 18.3245C83.0921 18.668 83.2144 18.9715 83.3536 19.3084C83.2415 19.2784 83.1634 19.255 83.0548 19.225C83.0853 19.3684 83.1091 19.4952 83.1397 19.6519C83.031 19.5619 82.9427 19.4885 82.8408 19.4018C82.834 19.4585 82.8273 19.5052 82.8205 19.5752C82.542 19.3985 82.3179 18.9548 81.9138 19.3618C82.087 19.6186 82.25 19.8587 82.413 20.1022C82.3892 20.1422 82.3654 20.1823 82.3383 20.2223C81.9579 20.0522 81.4995 19.9655 81.2142 19.6986C80.0495 18.6146 78.9391 17.474 77.8048 16.3566C77.5332 16.0898 77.2581 15.8263 76.9559 15.5328C75.8896 17.2572 74.8403 18.9515 73.7638 20.6992C73.7808 20.4191 73.7978 20.2089 73.8114 19.9821C73.7299 20.0022 73.6755 20.0122 73.6076 20.0288C73.4922 19.3418 74.0015 18.8815 74.2392 18.3245C74.2053 18.3045 74.1713 18.2844 74.1408 18.2678C73.7842 18.7948 73.4277 19.3217 73.0745 19.8521C73.0609 19.8487 73.0473 19.8454 73.0371 19.8421C73.2375 19.4552 73.4378 19.0683 73.6382 18.6813C73.6008 18.6613 73.5601 18.6447 73.5227 18.6247C73.3224 18.9582 73.1186 19.2951 72.9183 19.6286C72.9047 19.6286 72.8877 19.6219 72.8741 19.6219C72.9149 19.4318 72.9556 19.245 73.0032 19.0316C72.9353 19.0849 72.8843 19.125 72.8368 19.165C72.8096 19.1516 72.7824 19.1383 72.7553 19.125L73.7333 16.947L73.7027 16.9136C73.0881 17.8375 72.4734 18.7614 71.8588 19.6886L71.7331 19.6186C71.8894 19.265 72.0557 18.9148 72.1882 18.5546C72.2289 18.4479 72.144 18.3045 72.1712 18.1877C72.2153 17.9876 72.2901 17.7941 72.375 17.6074C72.4429 17.4539 72.5481 17.3172 72.6228 17.1671C72.7519 16.9169 72.8606 16.6535 72.9964 16.4066C73.4277 15.6228 73.8691 14.8424 74.3343 14.0119L74.3275 13.9952ZM83.6796 10.3696C83.6524 10.3296 83.6219 10.2896 83.5947 10.2496C83.1465 10.5564 82.7016 10.8633 82.2534 11.1701C82.2805 11.2102 82.3077 11.2468 82.3349 11.2869C82.7831 10.98 83.2314 10.6765 83.6762 10.3696H83.6796Z" fill="#FFF9F5"/>
<path d="M82.6541 18.2344C82.9122 18.6613 83.1737 19.0916 83.4318 19.5185C83.3978 19.5385 83.3638 19.5585 83.3299 19.5785C83.0922 19.1316 82.61 18.8381 82.4775 18.3278C82.5353 18.2977 82.593 18.2644 82.6541 18.2344Z" fill="#FFF9F5"/>
</svg>
