<svg width="72" height="72" viewBox="0 0 72 72" fill="none" xmlns="http://www.w3.org/2000/svg">
<path d="M25.348 40.3339C16.8987 38.7898 8.54235 37.2611 0 35.686C0.449597 33.4316 1.14725 31.3006 1.20926 29.1388C1.25577 27.3322 1.30229 25.5564 1.87592 23.8424C2.49605 22.0203 3.30222 21.4335 5.24014 21.8504C10.4958 22.9468 15.7359 24.1821 20.976 25.3711C23.5806 25.9579 26.1696 26.6064 29.0843 27.3013C28.2626 22.3754 27.3169 17.6967 26.7278 12.987C26.3402 9.83694 26.3712 6.6251 26.4487 3.44415C26.4797 2.47133 27.3169 1.5294 27.813 0.49482C28.2936 2.20883 28.7897 3.93828 29.4099 6.11553C29.5494 5.3589 29.6579 5.03462 29.6579 4.69491C29.6579 3.3515 29.4409 1.91544 31.3633 1.54484C31.6268 1.49852 31.7664 0.88086 32.0144 0.433056C32.526 0.695561 33.0532 0.973507 33.5803 1.23601C35.4872 -0.817709 37.9212 -0.230932 38.9134 2.39413C40.2002 5.76038 40.3242 9.29648 40.4793 12.8171C40.6808 17.3724 40.8203 21.9431 40.9909 26.8844C50.8045 21.4181 60.6181 17.1871 70.8193 13.8517C71.9666 15.8591 69.9821 16.2606 69.1915 17.1562C68.4628 17.9901 67.4086 18.5151 66.5249 19.2254C65.6877 19.9048 64.897 20.6306 64.2614 21.6343C65.3931 20.9548 66.5559 20.2908 67.6721 19.5805C68.7419 18.8857 69.7806 18.1136 71.1604 17.6195C70.9278 18.2062 70.6798 18.7776 70.3542 19.6114C70.9588 19.1945 71.3774 18.9011 71.8115 18.6077C72.6797 19.6577 70.1682 20.6306 71.889 21.8195C67.3 24.9542 62.68 28.1197 57.7965 31.4551C58.7422 31.4705 59.4399 31.4859 60.153 31.5014C60.184 31.6249 60.1995 31.733 60.2305 31.8565C55.626 33.9411 51.037 36.0257 46.3705 38.1412C51.3471 43.1134 56.1066 47.8848 60.8661 52.6408C60.7886 52.7644 60.7111 52.8724 60.6336 52.996C59.967 52.6099 59.3158 52.2085 58.3701 51.668C61.5173 55.1269 64.4784 58.3542 67.4241 61.5969C67.2846 61.7513 67.145 61.8903 67.0055 62.0447C66.3078 61.5351 65.6102 61.0256 64.711 60.377C65.3621 61.9675 65.9203 63.3727 66.5559 64.9323C66.0443 64.7933 65.6877 64.6852 65.1916 64.5462C65.3311 65.2102 65.4397 65.797 65.5792 66.5227C65.0831 66.1058 64.68 65.7661 64.2149 65.3646C64.1839 65.6271 64.1529 65.8433 64.1219 66.1676C62.8506 65.3492 61.8274 63.2955 59.9825 65.1793C60.7731 66.3683 61.5173 67.4801 62.2615 68.6073C62.1529 68.7926 62.0444 68.9779 61.9204 69.1632C60.184 68.3757 58.0911 67.9742 56.7888 66.7389C51.4711 61.7204 46.4015 56.4394 41.2234 51.2665C39.9831 50.0312 38.7274 48.8113 37.3476 47.4525C32.4795 55.4357 27.689 63.28 22.7744 71.3714C22.8519 70.0743 22.9295 69.1015 22.9915 68.0514C22.6194 68.1441 22.3713 68.1904 22.0613 68.2676C21.5341 65.0867 23.8597 62.9557 24.9449 60.377C24.7899 60.2844 24.6348 60.1917 24.4953 60.1145C22.8674 62.5543 21.2396 64.994 19.6272 67.4492C19.5652 67.4338 19.5032 67.4184 19.4567 67.4029C20.3714 65.6117 21.2861 63.8205 22.2008 62.0293C22.0303 61.9366 21.8442 61.8594 21.6737 61.7668C20.759 63.3109 19.8288 64.8705 18.9141 66.4146C18.8521 66.4146 18.7746 66.3838 18.7126 66.3838C18.8986 65.5036 19.0846 64.6389 19.3017 63.6506C18.9916 63.8977 18.7591 64.083 18.542 64.2683C18.418 64.2065 18.294 64.1447 18.1699 64.083L22.6349 53.9997L22.4954 53.8453C19.6892 58.1226 16.8832 62.3999 14.077 66.6926L13.5034 66.3683C14.2166 64.7315 14.9762 63.1102 15.5809 61.4425C15.7669 60.9484 15.3793 60.2844 15.5034 59.7439C15.7049 58.8174 16.046 57.9218 16.4336 57.0571C16.7436 56.3468 17.2242 55.7137 17.5653 55.0188C18.1544 53.8607 18.6505 52.6408 19.2707 51.4981C21.2396 47.8694 23.255 44.2561 25.379 40.4111L25.348 40.3339ZM68.0442 23.549C67.9202 23.3637 67.7807 23.1784 67.6566 22.9931C65.6102 24.4137 63.5793 25.8343 61.5328 27.255C61.6568 27.4403 61.7809 27.6101 61.9049 27.7954C63.9513 26.3748 65.9978 24.9696 68.0287 23.549H68.0442Z" fill="#FA942E"/>
<path d="M63.3621 59.9599C64.5403 61.9364 65.7341 63.9283 66.9123 65.9048C66.7573 65.9975 66.6023 66.0901 66.4472 66.1828C65.362 64.1136 63.1605 62.7548 62.5559 60.3922C62.8195 60.2533 63.083 60.0988 63.3621 59.9599Z" fill="#FA942E"/>
</svg>
